<svg width="264" height="48" viewBox="0 0 264 48" fill="none" xmlns="http://www.w3.org/2000/svg">
<rect width="264" height="48" rx="3" fill="white"/>
<path d="M235.41 20.59L240 25.17L244.59 20.59L246 22L240 28L234 22L235.41 20.59Z" fill="#98A0A6"/>
<line x1="216.5" y1="2.18557e-08" x2="216.5" y2="48" stroke="#98A0A6"/>
<path d="M73.856 18.072C73.6427 17.8693 73.536 17.6667 73.536 17.464C73.536 17.2933 73.5947 17.1547 73.712 17.048C73.8293 16.9307 73.9733 16.872 74.144 16.872C74.3893 16.872 74.608 16.9947 74.8 17.24L76.656 19.672C76.72 19.7467 76.752 19.8267 76.752 19.912C76.752 20.008 76.7147 20.0933 76.64 20.168C76.5653 20.232 76.48 20.264 76.384 20.264C76.288 20.264 76.2027 20.232 76.128 20.168L73.856 18.072ZM80.5729 22.232C80.4555 22.232 80.3595 22.1947 80.2849 22.12C80.2102 22.0453 80.1622 21.9387 80.1409 21.8L79.8529 18.536L79.8369 18.376C79.8369 18.1413 79.9062 17.96 80.0449 17.832C80.1835 17.704 80.3595 17.64 80.5729 17.64C80.8182 17.64 81.0049 17.72 81.1329 17.88C81.2715 18.04 81.3195 18.2587 81.2769 18.536L81.0049 21.8C80.9729 22.088 80.8289 22.232 80.5729 22.232ZM84.1681 29.08C83.9121 29.08 83.6988 29 83.5281 28.84C83.3575 28.6693 83.2721 28.4507 83.2721 28.184C83.2721 27.9173 83.3575 27.6987 83.5281 27.528C83.6988 27.3573 83.9121 27.272 84.1681 27.272C84.4135 27.272 84.6161 27.3573 84.7761 27.528C84.9468 27.6987 85.0321 27.9173 85.0321 28.184C85.0321 28.4507 84.9468 28.6693 84.7761 28.84C84.6161 29 84.4135 29.08 84.1681 29.08ZM87.8244 29.08C87.5684 29.08 87.355 29 87.1844 28.84C87.0137 28.6693 86.9284 28.4507 86.9284 28.184C86.9284 27.9173 87.0137 27.6987 87.1844 27.528C87.355 27.3573 87.5684 27.272 87.8244 27.272C88.0697 27.272 88.2724 27.3573 88.4324 27.528C88.603 27.6987 88.6884 27.9173 88.6884 28.184C88.6884 28.4507 88.603 28.6693 88.4324 28.84C88.2724 29 88.0697 29.08 87.8244 29.08ZM97.7686 27.896C97.9606 27.896 98.11 27.944 98.2166 28.04C98.3233 28.136 98.3766 28.2693 98.3766 28.44C98.3766 28.8133 98.174 29 97.7686 29H91.4966C91.3153 29 91.166 28.9467 91.0486 28.84C90.9313 28.7227 90.8726 28.584 90.8726 28.424C90.8726 28.2213 90.9473 28.0453 91.0966 27.896L94.9526 23.656C95.486 23.0587 95.87 22.5253 96.1046 22.056C96.35 21.576 96.4726 21.096 96.4726 20.616C96.4726 19.9973 96.2913 19.5227 95.9286 19.192C95.5766 18.8613 95.0753 18.696 94.4246 18.696C93.9126 18.696 93.422 18.792 92.9526 18.984C92.4833 19.1653 92.014 19.448 91.5446 19.832C91.3846 19.96 91.2353 20.024 91.0966 20.024C90.9793 20.024 90.878 19.9707 90.7926 19.864C90.7073 19.7467 90.6646 19.608 90.6646 19.448C90.6646 19.224 90.75 19.0427 90.9206 18.904C91.358 18.4987 91.8913 18.1787 92.5206 17.944C93.15 17.7093 93.7953 17.592 94.4566 17.592C95.47 17.592 96.2753 17.8587 96.8726 18.392C97.4806 18.9253 97.7846 19.6453 97.7846 20.552C97.7846 21.2027 97.6353 21.8267 97.3366 22.424C97.0486 23.0213 96.5686 23.688 95.8966 24.424L92.6966 27.896H97.7686ZM108.05 25.96C108.05 26.792 107.746 27.496 107.138 28.072C106.541 28.6373 105.746 28.9787 104.754 29.096V30.328C104.754 30.5093 104.701 30.6533 104.594 30.76C104.498 30.8667 104.365 30.92 104.194 30.92C104.024 30.92 103.885 30.8667 103.778 30.76C103.682 30.6533 103.634 30.5093 103.634 30.328V29.112C102.984 29.0693 102.354 28.9413 101.746 28.728C101.138 28.5147 100.621 28.2107 100.194 27.816C100.024 27.6773 99.9384 27.496 99.9384 27.272C99.9384 27.1227 99.981 26.9947 100.066 26.888C100.152 26.7707 100.253 26.712 100.37 26.712C100.498 26.712 100.653 26.7707 100.834 26.888C101.901 27.6347 102.973 28.008 104.05 28.008C104.893 28.008 105.549 27.832 106.018 27.48C106.488 27.128 106.722 26.6267 106.722 25.976C106.722 25.592 106.6 25.2827 106.354 25.048C106.12 24.8027 105.816 24.616 105.442 24.488C105.08 24.3493 104.584 24.2053 103.954 24.056C103.144 23.8533 102.488 23.6507 101.986 23.448C101.496 23.2453 101.074 22.936 100.722 22.52C100.37 22.104 100.194 21.544 100.194 20.84C100.194 20.264 100.338 19.7467 100.626 19.288C100.914 18.8187 101.314 18.44 101.826 18.152C102.349 17.864 102.946 17.688 103.618 17.624V16.392C103.618 16.2213 103.672 16.0827 103.778 15.976C103.885 15.8587 104.018 15.8 104.178 15.8C104.349 15.8 104.482 15.8533 104.578 15.96C104.685 16.0667 104.738 16.2107 104.738 16.392V17.624C105.304 17.6773 105.848 17.8107 106.37 18.024C106.893 18.2373 107.336 18.5307 107.698 18.904C107.88 19.0533 107.97 19.2347 107.97 19.448C107.97 19.5973 107.922 19.7307 107.826 19.848C107.741 19.9547 107.64 20.008 107.522 20.008C107.384 20.008 107.234 19.9493 107.074 19.832C106.605 19.448 106.146 19.1653 105.698 18.984C105.261 18.8027 104.749 18.712 104.162 18.712C103.352 18.712 102.706 18.8987 102.226 19.272C101.757 19.6453 101.522 20.152 101.522 20.792C101.522 21.24 101.65 21.5973 101.906 21.864C102.173 22.1307 102.498 22.3387 102.882 22.488C103.266 22.6267 103.794 22.7813 104.466 22.952C105.245 23.144 105.869 23.336 106.338 23.528C106.818 23.72 107.224 24.0133 107.554 24.408C107.885 24.792 108.05 25.3093 108.05 25.96ZM110.332 23.352C110.183 23.352 110.06 23.304 109.964 23.208C109.868 23.1013 109.82 22.9733 109.82 22.824C109.82 22.696 109.868 22.584 109.964 22.488C110.071 22.392 110.193 22.344 110.332 22.344H117.116C117.265 22.344 117.388 22.3973 117.484 22.504C117.58 22.6 117.628 22.7227 117.628 22.872C117.628 23 117.575 23.112 117.468 23.208C117.372 23.304 117.255 23.352 117.116 23.352H110.332ZM110.332 26.552C110.183 26.552 110.06 26.504 109.964 26.408C109.868 26.3013 109.82 26.1733 109.82 26.024C109.82 25.896 109.868 25.784 109.964 25.688C110.071 25.592 110.193 25.544 110.332 25.544H117.116C117.265 25.544 117.388 25.5973 117.484 25.704C117.58 25.8 117.628 25.9227 117.628 26.072C117.628 26.2 117.575 26.312 117.468 26.408C117.372 26.504 117.255 26.552 117.116 26.552H110.332ZM123.27 28.92C123.131 29.1547 122.955 29.272 122.742 29.272C122.603 29.272 122.481 29.224 122.374 29.128C122.278 29.032 122.23 28.904 122.23 28.744C122.23 28.616 122.267 28.4933 122.342 28.376L128.454 17.8C128.593 17.5653 128.769 17.448 128.982 17.448C129.121 17.448 129.238 17.5013 129.334 17.608C129.441 17.704 129.494 17.8267 129.494 17.976C129.494 18.0933 129.462 18.216 129.398 18.344L123.27 28.92ZM122.022 24.488C121.169 24.488 120.502 24.2 120.022 23.624C119.542 23.0373 119.302 22.1733 119.302 21.032C119.302 19.9013 119.542 19.048 120.022 18.472C120.502 17.8853 121.169 17.592 122.022 17.592C122.875 17.592 123.542 17.8853 124.022 18.472C124.502 19.048 124.742 19.9013 124.742 21.032C124.742 22.1733 124.502 23.0373 124.022 23.624C123.542 24.2 122.875 24.488 122.022 24.488ZM122.022 23.56C122.545 23.56 122.929 23.3573 123.174 22.952C123.43 22.5467 123.558 21.9067 123.558 21.032C123.558 20.168 123.43 19.5333 123.174 19.128C122.929 18.7227 122.545 18.52 122.022 18.52C121.499 18.52 121.11 18.7227 120.854 19.128C120.598 19.5333 120.47 20.168 120.47 21.032C120.47 21.9067 120.598 22.5467 120.854 22.952C121.11 23.3573 121.499 23.56 122.022 23.56ZM129.702 29.112C128.849 29.112 128.182 28.824 127.702 28.248C127.222 27.6613 126.982 26.7973 126.982 25.656C126.982 24.5253 127.222 23.672 127.702 23.096C128.182 22.5093 128.849 22.216 129.702 22.216C130.566 22.216 131.233 22.504 131.702 23.08C132.182 23.656 132.422 24.5147 132.422 25.656C132.422 26.7973 132.182 27.6613 131.702 28.248C131.233 28.824 130.566 29.112 129.702 29.112ZM129.702 28.184C130.235 28.184 130.625 27.9867 130.87 27.592C131.126 27.1867 131.254 26.5413 131.254 25.656C131.254 24.792 131.126 24.1573 130.87 23.752C130.614 23.3467 130.225 23.144 129.702 23.144C129.179 23.144 128.79 23.3467 128.534 23.752C128.289 24.1573 128.166 24.792 128.166 25.656C128.166 26.5307 128.289 27.1707 128.534 27.576C128.79 27.9813 129.179 28.184 129.702 28.184ZM136.641 31.624C135.51 29.4587 134.945 27.1813 134.945 24.792C134.945 22.4027 135.51 20.1253 136.641 17.96C136.78 17.7147 136.966 17.592 137.201 17.592C137.329 17.592 137.436 17.6347 137.521 17.72C137.617 17.8053 137.665 17.912 137.665 18.04C137.665 18.1147 137.649 18.1947 137.617 18.28C136.721 20.392 136.273 22.5627 136.273 24.792C136.273 27.0213 136.721 29.192 137.617 31.304C137.649 31.4 137.665 31.48 137.665 31.544C137.665 31.6827 137.617 31.7893 137.521 31.864C137.436 31.9493 137.329 31.992 137.201 31.992C136.966 31.992 136.78 31.8693 136.641 31.624ZM146.52 23.944C146.659 23.944 146.776 23.992 146.872 24.088C146.979 24.184 147.032 24.3013 147.032 24.44C147.032 24.5787 146.984 24.7013 146.888 24.808C146.792 24.904 146.669 24.952 146.52 24.952H143.624V27.832C143.624 27.9813 143.576 28.104 143.48 28.2C143.384 28.296 143.267 28.344 143.128 28.344C142.989 28.344 142.872 28.296 142.776 28.2C142.68 28.0933 142.632 27.9707 142.632 27.832V24.952H139.736C139.597 24.952 139.475 24.904 139.368 24.808C139.272 24.7013 139.224 24.5787 139.224 24.44C139.224 24.3013 139.272 24.184 139.368 24.088C139.475 23.992 139.597 23.944 139.736 23.944H142.632V21.064C142.632 20.9147 142.68 20.792 142.776 20.696C142.872 20.5893 142.989 20.536 143.128 20.536C143.267 20.536 143.384 20.5893 143.48 20.696C143.576 20.792 143.624 20.9147 143.624 21.064V23.944H146.52ZM156.738 25.96C156.738 26.792 156.434 27.496 155.826 28.072C155.229 28.6373 154.434 28.9787 153.442 29.096V30.328C153.442 30.5093 153.389 30.6533 153.282 30.76C153.186 30.8667 153.053 30.92 152.882 30.92C152.711 30.92 152.573 30.8667 152.466 30.76C152.37 30.6533 152.322 30.5093 152.322 30.328V29.112C151.671 29.0693 151.042 28.9413 150.434 28.728C149.826 28.5147 149.309 28.2107 148.882 27.816C148.711 27.6773 148.626 27.496 148.626 27.272C148.626 27.1227 148.669 26.9947 148.754 26.888C148.839 26.7707 148.941 26.712 149.058 26.712C149.186 26.712 149.341 26.7707 149.522 26.888C150.589 27.6347 151.661 28.008 152.738 28.008C153.581 28.008 154.237 27.832 154.706 27.48C155.175 27.128 155.41 26.6267 155.41 25.976C155.41 25.592 155.287 25.2827 155.042 25.048C154.807 24.8027 154.503 24.616 154.13 24.488C153.767 24.3493 153.271 24.2053 152.642 24.056C151.831 23.8533 151.175 23.6507 150.674 23.448C150.183 23.2453 149.762 22.936 149.41 22.52C149.058 22.104 148.882 21.544 148.882 20.84C148.882 20.264 149.026 19.7467 149.314 19.288C149.602 18.8187 150.002 18.44 150.514 18.152C151.037 17.864 151.634 17.688 152.306 17.624V16.392C152.306 16.2213 152.359 16.0827 152.466 15.976C152.573 15.8587 152.706 15.8 152.866 15.8C153.037 15.8 153.17 15.8533 153.266 15.96C153.373 16.0667 153.426 16.2107 153.426 16.392V17.624C153.991 17.6773 154.535 17.8107 155.058 18.024C155.581 18.2373 156.023 18.5307 156.386 18.904C156.567 19.0533 156.658 19.2347 156.658 19.448C156.658 19.5973 156.61 19.7307 156.514 19.848C156.429 19.9547 156.327 20.008 156.21 20.008C156.071 20.008 155.922 19.9493 155.762 19.832C155.293 19.448 154.834 19.1653 154.386 18.984C153.949 18.8027 153.437 18.712 152.85 18.712C152.039 18.712 151.394 18.8987 150.914 19.272C150.445 19.6453 150.21 20.152 150.21 20.792C150.21 21.24 150.338 21.5973 150.594 21.864C150.861 22.1307 151.186 22.3387 151.57 22.488C151.954 22.6267 152.482 22.7813 153.154 22.952C153.933 23.144 154.557 23.336 155.026 23.528C155.506 23.72 155.911 24.0133 156.242 24.408C156.573 24.792 156.738 25.3093 156.738 25.96ZM165.74 23.72C165.889 23.784 166.006 23.88 166.092 24.008C166.177 24.136 166.22 24.28 166.22 24.44C166.22 24.6107 166.177 24.7653 166.092 24.904C166.006 25.032 165.889 25.128 165.74 25.192L159.276 28.12C159.18 28.1627 159.073 28.184 158.956 28.184C158.806 28.184 158.678 28.1413 158.572 28.056C158.465 27.96 158.412 27.8427 158.412 27.704C158.412 27.5227 158.508 27.3787 158.7 27.272L164.988 24.456L158.7 21.624C158.508 21.5387 158.412 21.4 158.412 21.208C158.412 21.0587 158.46 20.9413 158.556 20.856C158.662 20.76 158.796 20.712 158.956 20.712C159.041 20.712 159.148 20.7387 159.276 20.792L165.74 23.72Z" fill="#292929"/>
<path d="M40 13H28C26.9 13 26 13.9 26 15V29H28V15H40V13ZM39 17L45 23V33C45 34.1 44.1 35 43 35H31.99C30.89 35 30 34.1 30 33L30.01 19C30.01 17.9 30.9 17 32 17H39ZM38 24H43.5L38 18.5V24Z" fill="#292929"/>
</svg>
